<?xml version="1.0" encoding="UTF-8"?>
<!--Generator: Apple Native CoreSVG 175.5-->
<!DOCTYPE svg
PUBLIC "-//W3C//DTD SVG 1.1//EN"
       "http://www.w3.org/Graphics/SVG/1.1/DTD/svg11.dtd">
<svg version="1.1" xmlns="http://www.w3.org/2000/svg" xmlns:xlink="http://www.w3.org/1999/xlink" width="3300" height="2200">
 <!--glyph: "", point size: 100.0, font version: "18.0d12e2", template writer version: "101"-->
 <g id="Notes">
  <rect height="2200" id="artboard" style="fill:white;opacity:1" width="3300" x="0" y="0"/>
  <line style="fill:none;stroke:black;opacity:1;stroke-width:0.5;" x1="263" x2="3036" y1="292" y2="292"/>
  <text style="stroke:none;fill:black;font-family:sans-serif;font-size:13;font-weight:bold;" transform="matrix(1 0 0 1 263 322)">Weight/Scale Variations</text>
  <text style="stroke:none;fill:black;font-family:sans-serif;font-size:13;text-anchor:middle;" transform="matrix(1 0 0 1 559.711 322)">Ultralight</text>
  <text style="stroke:none;fill:black;font-family:sans-serif;font-size:13;text-anchor:middle;" transform="matrix(1 0 0 1 856.422 322)">Thin</text>
  <text style="stroke:none;fill:black;font-family:sans-serif;font-size:13;text-anchor:middle;" transform="matrix(1 0 0 1 1153.13 322)">Light</text>
  <text style="stroke:none;fill:black;font-family:sans-serif;font-size:13;text-anchor:middle;" transform="matrix(1 0 0 1 1449.84 322)">Regular</text>
  <text style="stroke:none;fill:black;font-family:sans-serif;font-size:13;text-anchor:middle;" transform="matrix(1 0 0 1 1746.56 322)">Medium</text>
  <text style="stroke:none;fill:black;font-family:sans-serif;font-size:13;text-anchor:middle;" transform="matrix(1 0 0 1 2043.27 322)">Semibold</text>
  <text style="stroke:none;fill:black;font-family:sans-serif;font-size:13;text-anchor:middle;" transform="matrix(1 0 0 1 2339.98 322)">Bold</text>
  <text style="stroke:none;fill:black;font-family:sans-serif;font-size:13;text-anchor:middle;" transform="matrix(1 0 0 1 2636.69 322)">Heavy</text>
  <text style="stroke:none;fill:black;font-family:sans-serif;font-size:13;text-anchor:middle;" transform="matrix(1 0 0 1 2933.4 322)">Black</text>
  <line style="fill:none;stroke:black;opacity:1;stroke-width:0.5;" x1="263" x2="3036" y1="1903" y2="1903"/>
  <g transform="matrix(1 0 0 1 263 1933)">
   <path d="M9.24805 0.830078C13.5547 0.830078 17.1387-2.74414 17.1387-7.05078C17.1387-11.3574 13.5449-14.9316 9.23828-14.9316C4.94141-14.9316 1.36719-11.3574 1.36719-7.05078C1.36719-2.74414 4.95117 0.830078 9.24805 0.830078ZM9.24805-0.654297C5.70312-0.654297 2.87109-3.49609 2.87109-7.05078C2.87109-10.6055 5.69336-13.4473 9.23828-13.4473C12.793-13.4473 15.6445-10.6055 15.6445-7.05078C15.6445-3.49609 12.8027-0.654297 9.24805-0.654297ZM5.6543-7.05078C5.6543-6.62109 5.95703-6.32812 6.40625-6.32812L8.50586-6.32812L8.50586-4.20898C8.50586-3.76953 8.79883-3.4668 9.22852-3.4668C9.67773-3.4668 9.9707-3.76953 9.9707-4.20898L9.9707-6.32812L12.0898-6.32812C12.5293-6.32812 12.832-6.62109 12.832-7.05078C12.832-7.49023 12.5293-7.79297 12.0898-7.79297L9.9707-7.79297L9.9707-9.90234C9.9707-10.3516 9.67773-10.6543 9.22852-10.6543C8.79883-10.6543 8.50586-10.3516 8.50586-9.90234L8.50586-7.79297L6.40625-7.79297C5.95703-7.79297 5.6543-7.49023 5.6543-7.05078Z"/>
  </g>
  <g transform="matrix(1 0 0 1 281.867 1933)">
   <path d="M11.709 2.91016C17.1582 2.91016 21.6699-1.61133 21.6699-7.05078C21.6699-12.5 17.1484-17.0117 11.6992-17.0117C6.25977-17.0117 1.74805-12.5 1.74805-7.05078C1.74805-1.61133 6.26953 2.91016 11.709 2.91016ZM11.709 1.25C7.09961 1.25 3.41797-2.44141 3.41797-7.05078C3.41797-11.6602 7.08984-15.3516 11.6992-15.3516C16.3086-15.3516 20.0098-11.6602 20.0098-7.05078C20.0098-2.44141 16.3184 1.25 11.709 1.25ZM7.17773-7.05078C7.17773-6.57227 7.50977-6.25 8.00781-6.25L10.8789-6.25L10.8789-3.36914C10.8789-2.88086 11.2109-2.53906 11.6895-2.53906C12.1777-2.53906 12.5195-2.87109 12.5195-3.36914L12.5195-6.25L15.4004-6.25C15.8887-6.25 16.2305-6.57227 16.2305-7.05078C16.2305-7.53906 15.8887-7.88086 15.4004-7.88086L12.5195-7.88086L12.5195-10.752C12.5195-11.25 12.1777-11.5918 11.6895-11.5918C11.2109-11.5918 10.8789-11.25 10.8789-10.752L10.8789-7.88086L8.00781-7.88086C7.50977-7.88086 7.17773-7.53906 7.17773-7.05078Z"/>
  </g>
  <g transform="matrix(1 0 0 1 305.646 1933)">
   <path d="M14.9707 5.66406C21.9336 5.66406 27.6953-0.0976562 27.6953-7.05078C27.6953-14.0137 21.9238-19.7754 14.9609-19.7754C8.00781-19.7754 2.25586-14.0137 2.25586-7.05078C2.25586-0.0976562 8.01758 5.66406 14.9707 5.66406ZM14.9707 3.84766C8.93555 3.84766 4.08203-1.01562 4.08203-7.05078C4.08203-13.0957 8.92578-17.9492 14.9609-17.9492C21.0059-17.9492 25.8691-13.0957 25.8691-7.05078C25.8691-1.01562 21.0156 3.84766 14.9707 3.84766ZM9.19922-7.05078C9.19922-6.5332 9.57031-6.17188 10.1172-6.17188L14.0625-6.17188L14.0625-2.2168C14.0625-1.67969 14.4336-1.29883 14.9512-1.29883C15.4883-1.29883 15.8594-1.66992 15.8594-2.2168L15.8594-6.17188L19.8145-6.17188C20.3516-6.17188 20.7324-6.5332 20.7324-7.05078C20.7324-7.59766 20.3613-7.96875 19.8145-7.96875L15.8594-7.96875L15.8594-11.9141C15.8594-12.4609 15.4883-12.8418 14.9512-12.8418C14.4336-12.8418 14.0625-12.4609 14.0625-11.9141L14.0625-7.96875L10.1172-7.96875C9.57031-7.96875 9.19922-7.59766 9.19922-7.05078Z"/>
  </g>
  <text style="stroke:none;fill:black;font-family:sans-serif;font-size:13;font-weight:bold;" transform="matrix(1 0 0 1 263 1953)">Design Variations</text>
  <text style="stroke:none;fill:black;font-family:sans-serif;font-size:13;" transform="matrix(1 0 0 1 263 1971)">Symbols are supported in up to nine weights and three scales.</text>
  <text style="stroke:none;fill:black;font-family:sans-serif;font-size:13;" transform="matrix(1 0 0 1 263 1989)">For optimal layout with text and other symbols, vertically align</text>
  <text style="stroke:none;fill:black;font-family:sans-serif;font-size:13;" transform="matrix(1 0 0 1 263 2007)">symbols with the adjacent text.</text>
  <line style="fill:none;stroke:#00AEEF;stroke-width:0.5;opacity:1.0;" x1="776" x2="776" y1="1919" y2="1933"/>
  <g transform="matrix(1 0 0 1 776 1933)">
   <path d="M3.31055 0.15625C3.82812 0.15625 4.08203-0.0390625 4.26758-0.585938L5.52734-4.0332L11.2891-4.0332L12.5488-0.585938C12.7344-0.0390625 12.9883 0.15625 13.4961 0.15625C14.0137 0.15625 14.3457-0.15625 14.3457-0.644531C14.3457-0.810547 14.3164-0.966797 14.2383-1.17188L9.6582-13.3691C9.43359-13.9648 9.0332-14.2676 8.4082-14.2676C7.80273-14.2676 7.39258-13.9746 7.17773-13.3789L2.59766-1.16211C2.51953-0.957031 2.49023-0.800781 2.49023-0.634766C2.49023-0.146484 2.80273 0.15625 3.31055 0.15625ZM6.00586-5.51758L8.37891-12.0898L8.42773-12.0898L10.8008-5.51758Z"/>
  </g>
  <line style="fill:none;stroke:#00AEEF;stroke-width:0.5;opacity:1.0;" x1="793.197" x2="793.197" y1="1919" y2="1933"/>
  <text style="stroke:none;fill:black;font-family:sans-serif;font-size:13;font-weight:bold;" transform="matrix(1 0 0 1 776 1953)">Margins</text>
  <text style="stroke:none;fill:black;font-family:sans-serif;font-size:13;" transform="matrix(1 0 0 1 776 1971)">Leading and trailing margins on the left and right side of each symbol</text>
  <text style="stroke:none;fill:black;font-family:sans-serif;font-size:13;" transform="matrix(1 0 0 1 776 1989)">can be adjusted by modifying the x-location of the margin guidelines.</text>
  <text style="stroke:none;fill:black;font-family:sans-serif;font-size:13;" transform="matrix(1 0 0 1 776 2007)">Modifications are automatically applied proportionally to all</text>
  <text style="stroke:none;fill:black;font-family:sans-serif;font-size:13;" transform="matrix(1 0 0 1 776 2025)">scales and weights.</text>
  <g transform="matrix(1 0 0 1 1289 1933)">
   <path d="M2.8418 1.86523L4.54102 3.57422C5.40039 4.44336 6.38672 4.38477 7.31445 3.35938L18.0078-8.42773L17.041-9.4043L6.42578 2.27539C6.07422 2.67578 5.74219 2.77344 5.27344 2.30469L4.10156 1.14258C3.63281 0.683594 3.74023 0.341797 4.14062-0.0195312L15.6152-10.8203L14.6387-11.7871L3.04688-0.898438C2.06055 0.0195312 1.98242 0.996094 2.8418 1.86523ZM9.25781-16.3281C8.83789-15.918 8.80859-15.3418 9.04297-14.9512C9.27734-14.5898 9.73633-14.3555 10.3809-14.5215C11.8457-14.8633 13.3691-14.9219 14.7949-13.9844L14.209-12.5293C13.8672-11.6992 14.043-11.1133 14.5801-10.5664L16.875-8.25195C17.3633-7.76367 17.7734-7.74414 18.3398-7.8418L19.4043-8.03711L20.0684-7.36328L20.0293-6.80664C19.9902-6.30859 20.1172-5.92773 20.6055-5.44922L21.3672-4.70703C21.8457-4.22852 22.4609-4.19922 22.9297-4.66797L25.8398-7.58789C26.3086-8.05664 26.2891-8.65234 25.8105-9.13086L25.0391-9.89258C24.5605-10.3711 24.1895-10.5273 23.7109-10.4883L23.1348-10.4395L22.4902-11.0742L22.7344-12.1973C22.8613-12.7637 22.7051-13.2031 22.1191-13.7891L19.9219-15.9766C16.582-19.2969 12.1484-19.2188 9.25781-16.3281ZM10.752-15.957C13.1836-17.7344 16.4746-17.4316 18.7012-15.2051L21.1328-12.793C21.3672-12.5586 21.4062-12.373 21.3379-12.0312L21.0156-10.5469L22.5195-9.0625L23.5059-9.12109C23.7598-9.13086 23.8379-9.11133 24.0332-8.91602L24.6094-8.33984L22.168-5.89844L21.5918-6.47461C21.3965-6.66992 21.3672-6.74805 21.377-7.01172L21.4453-7.98828L19.9512-9.47266L18.4277-9.21875C18.1055-9.15039 17.959-9.17969 17.7148-9.41406L15.7129-11.416C15.459-11.6504 15.4297-11.8164 15.5859-12.1875L16.4648-14.2773C14.9023-15.7324 12.8711-16.3574 10.8398-15.7617C10.6836-15.7227 10.625-15.8496 10.752-15.957Z"/>
  </g>
  <text style="stroke:none;fill:black;font-family:sans-serif;font-size:13;font-weight:bold;" transform="matrix(1 0 0 1 1289 1953)">Exporting</text>
  <text style="stroke:none;fill:black;font-family:sans-serif;font-size:13;" transform="matrix(1 0 0 1 1289 1971)">Symbols should be outlined when exporting to ensure the</text>
  <text style="stroke:none;fill:black;font-family:sans-serif;font-size:13;" transform="matrix(1 0 0 1 1289 1989)">design is preserved when submitting to Xcode.</text>
  <text id="template-version" style="stroke:none;fill:black;font-family:sans-serif;font-size:13;text-anchor:end;" transform="matrix(1 0 0 1 3036 1933)">Template v.4.0</text>
  <text style="stroke:none;fill:black;font-family:sans-serif;font-size:13;text-anchor:end;" transform="matrix(1 0 0 1 3036 1951)">Requires Xcode 14 or greater</text>
  <text id="descriptive-name" style="stroke:none;fill:black;font-family:sans-serif;font-size:13;text-anchor:end;" transform="matrix(1 0 0 1 3036 1969)">Generated from custom.square.and.arrow.up</text>
  <text style="stroke:none;fill:black;font-family:sans-serif;font-size:13;text-anchor:end;" transform="matrix(1 0 0 1 3036 1987)">Typeset at 100 points</text>
  <text style="stroke:none;fill:black;font-family:sans-serif;font-size:13;" transform="matrix(1 0 0 1 263 726)">Small</text>
  <text style="stroke:none;fill:black;font-family:sans-serif;font-size:13;" transform="matrix(1 0 0 1 263 1156)">Medium</text>
  <text style="stroke:none;fill:black;font-family:sans-serif;font-size:13;" transform="matrix(1 0 0 1 263 1586)">Large</text>
 </g>
 <g id="Guides">
  <g id="H-reference" style="fill:#27AAE1;stroke:none;" transform="matrix(1 0 0 1 339 696)">
   <path d="M0.993654 0L3.63775 0L29.3281-67.1323L30.0303-67.1323L30.0303-70.459L28.1226-70.459ZM11.6885-24.4799L46.9815-24.4799L46.2315-26.7285L12.4385-26.7285ZM55.1196 0L57.7637 0L30.6382-70.459L29.4326-70.459L29.4326-67.1323Z"/>
  </g>
  <line id="Baseline-S" style="fill:none;stroke:#27AAE1;opacity:1;stroke-width:0.5;" x1="263" x2="3036" y1="696" y2="696"/>
  <line id="Capline-S" style="fill:none;stroke:#27AAE1;opacity:1;stroke-width:0.5;" x1="263" x2="3036" y1="625.541" y2="625.541"/>
  <g id="H-reference" style="fill:#27AAE1;stroke:none;" transform="matrix(1 0 0 1 339 1126)">
   <path d="M0.993654 0L3.63775 0L29.3281-67.1323L30.0303-67.1323L30.0303-70.459L28.1226-70.459ZM11.6885-24.4799L46.9815-24.4799L46.2315-26.7285L12.4385-26.7285ZM55.1196 0L57.7637 0L30.6382-70.459L29.4326-70.459L29.4326-67.1323Z"/>
  </g>
  <line id="Baseline-M" style="fill:none;stroke:#27AAE1;opacity:1;stroke-width:0.5;" x1="263" x2="3036" y1="1126" y2="1126"/>
  <line id="Capline-M" style="fill:none;stroke:#27AAE1;opacity:1;stroke-width:0.5;" x1="263" x2="3036" y1="1055.54" y2="1055.54"/>
  <g id="H-reference" style="fill:#27AAE1;stroke:none;" transform="matrix(1 0 0 1 339 1556)">
   <path d="M0.993654 0L3.63775 0L29.3281-67.1323L30.0303-67.1323L30.0303-70.459L28.1226-70.459ZM11.6885-24.4799L46.9815-24.4799L46.2315-26.7285L12.4385-26.7285ZM55.1196 0L57.7637 0L30.6382-70.459L29.4326-70.459L29.4326-67.1323Z"/>
  </g>
  <line id="Baseline-L" style="fill:none;stroke:#27AAE1;opacity:1;stroke-width:0.5;" x1="263" x2="3036" y1="1556" y2="1556"/>
  <line id="Capline-L" style="fill:none;stroke:#27AAE1;opacity:1;stroke-width:0.5;" x1="263" x2="3036" y1="1485.54" y2="1485.54"/>
  <line id="left-margin-Ultralight-S" style="fill:none;stroke:#00AEEF;stroke-width:0.5;opacity:1.0;" x1="508" x2="508" y1="600.785" y2="720.121"/>
  <line id="right-margin-Ultralight-S" style="fill:none;stroke:#00AEEF;stroke-width:0.5;opacity:1.0;" x1="651" x2="651" y1="600.785" y2="720.121"/>
  <line id="left-margin-Regular-S" style="fill:none;stroke:#00AEEF;stroke-width:0.5;opacity:1.0;" x1="1395.73" x2="1395.73" y1="600.785" y2="720.121"/>
  <line id="right-margin-Regular-S" style="fill:none;stroke:#00AEEF;stroke-width:0.5;opacity:1.0;" x1="1538.96" x2="1538.96" y1="600.785" y2="720.121"/>
  <line id="left-margin-Black-S" style="fill:none;stroke:#00AEEF;stroke-width:0.5;opacity:1.0;" x1="2875.99" x2="2875.99" y1="600.785" y2="720.121"/>
  <line id="right-margin-Black-S" style="fill:none;stroke:#00AEEF;stroke-width:0.5;opacity:1.0;" x1="3019.81" x2="3019.81" y1="600.785" y2="720.121"/>
 </g>
 <g id="Symbols">
  <g style="fill-rule:evenodd;" id="Black-S" transform="matrix(0.7793848 0 0 0.8293848 2898.99 624)">
   <path d="M70,9.18a29.87,29.87,0,0,1,13.08,8.23A29.38,29.38,0,0,1,90.54,32.2,58.36,58.36,0,0,1,91,43.12c0,2.45-.08,4.89.1,7.22a22.47,22.47,0,0,0,3,10.12A25.4,25.4,0,0,0,102,68.3a4.35,4.35,0,0,1,1.83,2.53,4.47,4.47,0,0,1,0,2.46,4.64,4.64,0,0,1-1.33,2.09,4.43,4.43,0,0,1-2.94,1.09H75.87v0h0a14.56,14.56,0,0,1-28.85,0H23.35a4.4,4.4,0,0,1-3.05-1.19,4.55,4.55,0,0,1-1.25-4.5A4.32,4.32,0,0,1,21,68.22a24.53,24.53,0,0,0,8.39-8.84,25.3,25.3,0,0,0,2.53-12c0-1.57,0-2.46,0-3.37a62.56,62.56,0,0,1,.52-11.85A29.71,29.71,0,0,1,53.1,9.13a8.56,8.56,0,0,1,3.43-3.79,10,10,0,0,1,10,0A8.6,8.6,0,0,1,70,9.18ZM17.71,3.47a2.09,2.09,0,0,1-.62.6A32.49,32.49,0,0,0,13,7.17a28.66,28.66,0,0,0-3.37,3.54,26.28,26.28,0,0,0-2.55,3.92,23.72,23.72,0,0,0-1.7,4.22,22.88,22.88,0,0,0-.84,4.48,24.33,24.33,0,0,0,0,4.67,28.43,28.43,0,0,0,.91,4.83,34,34,0,0,0,1.78,4.88,2.11,2.11,0,0,1,.2.84,2.17,2.17,0,0,1-.14.85,2.25,2.25,0,0,1-.42.7,2.16,2.16,0,0,1-.61.47,1.07,1.07,0,0,1-.22.1,2,2,0,0,1-.79.16,2,2,0,0,1-.81-.14,2.18,2.18,0,0,1-.7-.42,2.42,2.42,0,0,1-.49-.64l-.07-.15a38.61,38.61,0,0,1-2-5.57,32.61,32.61,0,0,1-1-5.54,28.68,28.68,0,0,1,0-5.48,28.17,28.17,0,0,1,1-5.27v0a27.36,27.36,0,0,1,2-5A29.49,29.49,0,0,1,6.11,8,32.57,32.57,0,0,1,10,3.9,36.84,36.84,0,0,1,14.66.37l0,0A2.25,2.25,0,0,1,15.51,0a2.51,2.51,0,0,1,.82,0h0a2.26,2.26,0,0,1,.78.34,2.09,2.09,0,0,1,.6.62h0a2.12,2.12,0,0,1,.31.81,2.26,2.26,0,0,1,0,.86,2.28,2.28,0,0,1-.35.78ZM29.3,13.34l0,0a26.2,26.2,0,0,0-3,2.15,19.35,19.35,0,0,0-2.36,2.34l0,0a15.64,15.64,0,0,0-1.73,2.54A12.89,12.89,0,0,0,21,23.13,13.23,13.23,0,0,0,20.54,26a16,16,0,0,0,.15,3.07,19.18,19.18,0,0,0,.78,3.28v0a24,24,0,0,0,1.43,3.44,2.28,2.28,0,0,1,.22.84,2.06,2.06,0,0,1-.1.82v0a2.22,2.22,0,0,1-.4.72,2.29,2.29,0,0,1-.64.52l-.07,0a2.28,2.28,0,0,1-.83.22,2.13,2.13,0,0,1-.83-.1h0a2.22,2.22,0,0,1-.72-.4,2,2,0,0,1-.52-.64l0-.07a29.85,29.85,0,0,1-1.71-4.15,22.93,22.93,0,0,1-.94-4,19.36,19.36,0,0,1-.16-3.93,17.29,17.29,0,0,1,.64-3.76,17.65,17.65,0,0,1,1.43-3.53,19.37,19.37,0,0,1,2.21-3.27,23.81,23.81,0,0,1,2.92-2.94,31.3,31.3,0,0,1,3.6-2.59l0,0a2.1,2.1,0,0,1,.81-.3,2.07,2.07,0,0,1,.86,0,2.2,2.2,0,0,1,.75.33,2.1,2.1,0,0,1,.57.58l.08.13a2.14,2.14,0,0,1,.28.79A2.27,2.27,0,0,1,30,12.72a2.25,2.25,0,0,1-.58.57l-.07.05Zm76.49-9.27a2.09,2.09,0,0,1-.62-.6,2.28,2.28,0,0,1-.35-.78,2.26,2.26,0,0,1,0-.86,2.12,2.12,0,0,1,.31-.81h0a2.09,2.09,0,0,1,.6-.62,2.26,2.26,0,0,1,.78-.34h0a2.51,2.51,0,0,1,.82,0,2.25,2.25,0,0,1,.81.32l0,0a36.84,36.84,0,0,1,4.67,3.53A32.57,32.57,0,0,1,116.77,8a29.49,29.49,0,0,1,3,4.59,27.36,27.36,0,0,1,2,5v0a28.17,28.17,0,0,1,1,5.27,29.53,29.53,0,0,1,0,5.48,32.61,32.61,0,0,1-1,5.54,38.61,38.61,0,0,1-2,5.57l-.07.15a2.42,2.42,0,0,1-.49.64,2.18,2.18,0,0,1-.7.42,2.21,2.21,0,0,1-1.6,0l-.22-.1a2.16,2.16,0,0,1-.61-.47,2.25,2.25,0,0,1-.42-.7,2.17,2.17,0,0,1-.14-.85,2.11,2.11,0,0,1,.2-.84,34,34,0,0,0,1.78-4.88,28.43,28.43,0,0,0,.91-4.83,24.33,24.33,0,0,0,0-4.67,22.88,22.88,0,0,0-.84-4.48,23.72,23.72,0,0,0-1.7-4.22,25.58,25.58,0,0,0-2.56-3.92,27.84,27.84,0,0,0-3.36-3.54,32.49,32.49,0,0,0-4.11-3.1ZM93.62,13.36l-.11-.07a2.25,2.25,0,0,1-.58-.57,2.27,2.27,0,0,1-.37-1.58,2.14,2.14,0,0,1,.28-.79l.08-.13a2.1,2.1,0,0,1,.57-.58,2.24,2.24,0,0,1,.74-.33,2.24,2.24,0,0,1,1.68.27l0,0a31.3,31.3,0,0,1,3.6,2.59,23.81,23.81,0,0,1,2.92,2.94,19.37,19.37,0,0,1,2.21,3.27,17.65,17.65,0,0,1,1.43,3.53,17.92,17.92,0,0,1,.64,3.76,19.36,19.36,0,0,1-.16,3.93,22.93,22.93,0,0,1-.94,4,29.85,29.85,0,0,1-1.71,4.15l0,.07a2,2,0,0,1-.52.64,2.22,2.22,0,0,1-.72.4h0a2.13,2.13,0,0,1-.83.1,2.28,2.28,0,0,1-.83-.22l-.07,0a2.29,2.29,0,0,1-.64-.52,2.22,2.22,0,0,1-.4-.72v0a2.06,2.06,0,0,1-.1-.82,2.18,2.18,0,0,1,.22-.83,24.55,24.55,0,0,0,1.43-3.45v0a19.18,19.18,0,0,0,.78-3.28,16,16,0,0,0,.15-3.07,13.23,13.23,0,0,0-.49-2.89,12.89,12.89,0,0,0-1.11-2.71A15.64,15.64,0,0,0,99,17.88l0,0a19.35,19.35,0,0,0-2.36-2.34,26.2,26.2,0,0,0-3-2.15Zm-14,7.26a25.15,25.15,0,0,0-12-7.22A2.36,2.36,0,0,1,66,11.77a4,4,0,0,0-1.84-2.38,5.2,5.2,0,0,0-2.6-.68A5,5,0,0,0,59,9.38a4,4,0,0,0-1.8,2.36,2.35,2.35,0,0,1-1.71,1.64A25,25,0,0,0,37,33,59.78,59.78,0,0,0,36.56,44c0,1.44,0,2.85,0,3.44a29.83,29.83,0,0,1-3.07,14.15,28.69,28.69,0,0,1-9.38,10.19H98.73a29.34,29.34,0,0,1-8.64-8.86,27.08,27.08,0,0,1-3.67-12.21c-.19-2.41-.14-5-.1-7.64a54.63,54.63,0,0,0-.43-10,24.7,24.7,0,0,0-6.25-12.39Z"/>
  </g>
  <g style="fill-rule:evenodd;" id="Regular-S" transform="matrix(0.7793848 0 0 0.8293848 1418.73 624)">
   <path d="M70,9.18a29.87,29.87,0,0,1,13.08,8.23A29.38,29.38,0,0,1,90.54,32.2,58.36,58.36,0,0,1,91,43.12c0,2.45-.08,4.89.1,7.22a22.47,22.47,0,0,0,3,10.12A25.4,25.4,0,0,0,102,68.3a4.35,4.35,0,0,1,1.83,2.53,4.47,4.47,0,0,1,0,2.46,4.64,4.64,0,0,1-1.33,2.09,4.43,4.43,0,0,1-2.94,1.09H75.87v0h0a14.56,14.56,0,0,1-28.85,0H23.35a4.4,4.4,0,0,1-3.05-1.19,4.55,4.55,0,0,1-1.25-4.5A4.32,4.32,0,0,1,21,68.22a24.53,24.53,0,0,0,8.39-8.84,25.3,25.3,0,0,0,2.53-12c0-1.57,0-2.46,0-3.37a62.56,62.56,0,0,1,.52-11.85A29.71,29.71,0,0,1,53.1,9.13a8.56,8.56,0,0,1,3.43-3.79,10,10,0,0,1,10,0A8.6,8.6,0,0,1,70,9.18ZM17.71,3.47a2.09,2.09,0,0,1-.62.6A32.49,32.49,0,0,0,13,7.17a28.66,28.66,0,0,0-3.37,3.54,26.28,26.28,0,0,0-2.55,3.92,23.72,23.72,0,0,0-1.7,4.22,22.88,22.88,0,0,0-.84,4.48,24.33,24.33,0,0,0,0,4.67,28.43,28.43,0,0,0,.91,4.83,34,34,0,0,0,1.78,4.88,2.11,2.11,0,0,1,.2.84,2.17,2.17,0,0,1-.14.85,2.25,2.25,0,0,1-.42.7,2.16,2.16,0,0,1-.61.47,1.07,1.07,0,0,1-.22.1,2,2,0,0,1-.79.16,2,2,0,0,1-.81-.14,2.18,2.18,0,0,1-.7-.42,2.42,2.42,0,0,1-.49-.64l-.07-.15a38.61,38.61,0,0,1-2-5.57,32.61,32.61,0,0,1-1-5.54,28.68,28.68,0,0,1,0-5.48,28.17,28.17,0,0,1,1-5.27v0a27.36,27.36,0,0,1,2-5A29.49,29.49,0,0,1,6.11,8,32.57,32.57,0,0,1,10,3.9,36.84,36.84,0,0,1,14.66.37l0,0A2.25,2.25,0,0,1,15.51,0a2.51,2.51,0,0,1,.82,0h0a2.26,2.26,0,0,1,.78.34,2.09,2.09,0,0,1,.6.62h0a2.12,2.12,0,0,1,.31.81,2.26,2.26,0,0,1,0,.86,2.28,2.28,0,0,1-.35.78ZM29.3,13.34l0,0a26.2,26.2,0,0,0-3,2.15,19.35,19.35,0,0,0-2.36,2.34l0,0a15.64,15.64,0,0,0-1.73,2.54A12.89,12.89,0,0,0,21,23.13,13.23,13.23,0,0,0,20.54,26a16,16,0,0,0,.15,3.07,19.18,19.18,0,0,0,.78,3.28v0a24,24,0,0,0,1.43,3.44,2.28,2.28,0,0,1,.22.84,2.06,2.06,0,0,1-.1.82v0a2.22,2.22,0,0,1-.4.72,2.29,2.29,0,0,1-.64.52l-.07,0a2.28,2.28,0,0,1-.83.22,2.13,2.13,0,0,1-.83-.1h0a2.22,2.22,0,0,1-.72-.4,2,2,0,0,1-.52-.64l0-.07a29.85,29.85,0,0,1-1.71-4.15,22.93,22.93,0,0,1-.94-4,19.36,19.36,0,0,1-.16-3.93,17.29,17.29,0,0,1,.64-3.76,17.65,17.65,0,0,1,1.43-3.53,19.37,19.37,0,0,1,2.21-3.27,23.81,23.81,0,0,1,2.92-2.94,31.3,31.3,0,0,1,3.6-2.59l0,0a2.1,2.1,0,0,1,.81-.3,2.07,2.07,0,0,1,.86,0,2.2,2.2,0,0,1,.75.33,2.1,2.1,0,0,1,.57.58l.08.13a2.14,2.14,0,0,1,.28.79A2.27,2.27,0,0,1,30,12.72a2.25,2.25,0,0,1-.58.57l-.07.05Zm76.49-9.27a2.09,2.09,0,0,1-.62-.6,2.28,2.28,0,0,1-.35-.78,2.26,2.26,0,0,1,0-.86,2.12,2.12,0,0,1,.31-.81h0a2.09,2.09,0,0,1,.6-.62,2.26,2.26,0,0,1,.78-.34h0a2.51,2.51,0,0,1,.82,0,2.25,2.25,0,0,1,.81.32l0,0a36.84,36.84,0,0,1,4.67,3.53A32.57,32.57,0,0,1,116.77,8a29.49,29.49,0,0,1,3,4.59,27.36,27.36,0,0,1,2,5v0a28.17,28.17,0,0,1,1,5.27,29.53,29.53,0,0,1,0,5.48,32.61,32.61,0,0,1-1,5.54,38.61,38.61,0,0,1-2,5.57l-.07.15a2.42,2.42,0,0,1-.49.64,2.18,2.18,0,0,1-.7.42,2.21,2.21,0,0,1-1.6,0l-.22-.1a2.16,2.16,0,0,1-.61-.47,2.25,2.25,0,0,1-.42-.7,2.17,2.17,0,0,1-.14-.85,2.11,2.11,0,0,1,.2-.84,34,34,0,0,0,1.78-4.88,28.43,28.43,0,0,0,.91-4.83,24.33,24.33,0,0,0,0-4.67,22.88,22.88,0,0,0-.84-4.48,23.72,23.72,0,0,0-1.7-4.22,25.58,25.58,0,0,0-2.56-3.92,27.84,27.84,0,0,0-3.36-3.54,32.49,32.49,0,0,0-4.11-3.1ZM93.62,13.36l-.11-.07a2.25,2.25,0,0,1-.58-.57,2.27,2.27,0,0,1-.37-1.58,2.14,2.14,0,0,1,.28-.79l.08-.13a2.1,2.1,0,0,1,.57-.58,2.24,2.24,0,0,1,.74-.33,2.24,2.24,0,0,1,1.68.27l0,0a31.3,31.3,0,0,1,3.6,2.59,23.81,23.81,0,0,1,2.92,2.94,19.37,19.37,0,0,1,2.21,3.27,17.65,17.65,0,0,1,1.43,3.53,17.92,17.92,0,0,1,.64,3.76,19.36,19.36,0,0,1-.16,3.93,22.93,22.93,0,0,1-.94,4,29.85,29.85,0,0,1-1.71,4.15l0,.07a2,2,0,0,1-.52.64,2.22,2.22,0,0,1-.72.4h0a2.13,2.13,0,0,1-.83.1,2.28,2.28,0,0,1-.83-.22l-.07,0a2.29,2.29,0,0,1-.64-.52,2.22,2.22,0,0,1-.4-.72v0a2.06,2.06,0,0,1-.1-.82,2.18,2.18,0,0,1,.22-.83,24.55,24.55,0,0,0,1.43-3.45v0a19.18,19.18,0,0,0,.78-3.28,16,16,0,0,0,.15-3.07,13.23,13.23,0,0,0-.49-2.89,12.89,12.89,0,0,0-1.11-2.71A15.64,15.64,0,0,0,99,17.88l0,0a19.35,19.35,0,0,0-2.36-2.34,26.2,26.2,0,0,0-3-2.15Zm-14,7.26a25.15,25.15,0,0,0-12-7.22A2.36,2.36,0,0,1,66,11.77a4,4,0,0,0-1.84-2.38,5.2,5.2,0,0,0-2.6-.68A5,5,0,0,0,59,9.38a4,4,0,0,0-1.8,2.36,2.35,2.35,0,0,1-1.71,1.64A25,25,0,0,0,37,33,59.78,59.78,0,0,0,36.56,44c0,1.44,0,2.85,0,3.44a29.83,29.83,0,0,1-3.07,14.15,28.69,28.69,0,0,1-9.38,10.19H98.73a29.34,29.34,0,0,1-8.64-8.86,27.08,27.08,0,0,1-3.67-12.21c-.19-2.41-.14-5-.1-7.64a54.63,54.63,0,0,0-.43-10,24.7,24.7,0,0,0-6.25-12.39Z"/>
  </g>
  <g style="fill-rule:evenodd;" id="Ultralight-S" transform="matrix(0.7793848 0 0 0.8293848 530.797 624)">
   <path d="M70,9.18a29.87,29.87,0,0,1,13.08,8.23A29.38,29.38,0,0,1,90.54,32.2,58.36,58.36,0,0,1,91,43.12c0,2.45-.08,4.89.1,7.22a22.47,22.47,0,0,0,3,10.12A25.4,25.4,0,0,0,102,68.3a4.35,4.35,0,0,1,1.83,2.53,4.47,4.47,0,0,1,0,2.46,4.64,4.64,0,0,1-1.33,2.09,4.43,4.43,0,0,1-2.94,1.09H75.87v0h0a14.56,14.56,0,0,1-28.85,0H23.35a4.4,4.4,0,0,1-3.05-1.19,4.55,4.55,0,0,1-1.25-4.5A4.32,4.32,0,0,1,21,68.22a24.53,24.53,0,0,0,8.39-8.84,25.3,25.3,0,0,0,2.53-12c0-1.57,0-2.46,0-3.37a62.56,62.56,0,0,1,.52-11.85A29.71,29.71,0,0,1,53.1,9.13a8.56,8.56,0,0,1,3.43-3.79,10,10,0,0,1,10,0A8.6,8.6,0,0,1,70,9.18ZM17.71,3.47a2.09,2.09,0,0,1-.62.6A32.49,32.49,0,0,0,13,7.17a28.66,28.66,0,0,0-3.37,3.54,26.28,26.28,0,0,0-2.55,3.92,23.72,23.72,0,0,0-1.7,4.22,22.88,22.88,0,0,0-.84,4.48,24.33,24.33,0,0,0,0,4.67,28.43,28.43,0,0,0,.91,4.83,34,34,0,0,0,1.78,4.88,2.11,2.11,0,0,1,.2.84,2.17,2.17,0,0,1-.14.85,2.25,2.25,0,0,1-.42.7,2.16,2.16,0,0,1-.61.47,1.07,1.07,0,0,1-.22.1,2,2,0,0,1-.79.16,2,2,0,0,1-.81-.14,2.18,2.18,0,0,1-.7-.42,2.42,2.42,0,0,1-.49-.64l-.07-.15a38.61,38.61,0,0,1-2-5.57,32.61,32.61,0,0,1-1-5.54,28.68,28.68,0,0,1,0-5.48,28.17,28.17,0,0,1,1-5.27v0a27.36,27.36,0,0,1,2-5A29.49,29.49,0,0,1,6.11,8,32.57,32.57,0,0,1,10,3.9,36.84,36.84,0,0,1,14.66.37l0,0A2.25,2.25,0,0,1,15.51,0a2.51,2.51,0,0,1,.82,0h0a2.26,2.26,0,0,1,.78.34,2.09,2.09,0,0,1,.6.62h0a2.12,2.12,0,0,1,.31.81,2.26,2.26,0,0,1,0,.86,2.28,2.28,0,0,1-.35.78ZM29.3,13.34l0,0a26.2,26.2,0,0,0-3,2.15,19.35,19.35,0,0,0-2.36,2.34l0,0a15.64,15.64,0,0,0-1.73,2.54A12.89,12.89,0,0,0,21,23.13,13.23,13.23,0,0,0,20.54,26a16,16,0,0,0,.15,3.07,19.18,19.18,0,0,0,.78,3.28v0a24,24,0,0,0,1.43,3.44,2.28,2.28,0,0,1,.22.84,2.06,2.06,0,0,1-.1.82v0a2.22,2.22,0,0,1-.4.72,2.29,2.29,0,0,1-.64.52l-.07,0a2.28,2.28,0,0,1-.83.22,2.13,2.13,0,0,1-.83-.1h0a2.22,2.22,0,0,1-.72-.4,2,2,0,0,1-.52-.64l0-.07a29.85,29.85,0,0,1-1.71-4.15,22.93,22.93,0,0,1-.94-4,19.36,19.36,0,0,1-.16-3.93,17.29,17.29,0,0,1,.64-3.76,17.65,17.65,0,0,1,1.43-3.53,19.37,19.37,0,0,1,2.21-3.27,23.81,23.81,0,0,1,2.92-2.94,31.3,31.3,0,0,1,3.6-2.59l0,0a2.1,2.1,0,0,1,.81-.3,2.07,2.07,0,0,1,.86,0,2.2,2.2,0,0,1,.75.33,2.1,2.1,0,0,1,.57.58l.08.13a2.14,2.14,0,0,1,.28.79A2.27,2.27,0,0,1,30,12.72a2.25,2.25,0,0,1-.58.57l-.07.05Zm76.49-9.27a2.09,2.09,0,0,1-.62-.6,2.28,2.28,0,0,1-.35-.78,2.26,2.26,0,0,1,0-.86,2.12,2.12,0,0,1,.31-.81h0a2.09,2.09,0,0,1,.6-.62,2.26,2.26,0,0,1,.78-.34h0a2.51,2.51,0,0,1,.82,0,2.25,2.25,0,0,1,.81.32l0,0a36.84,36.84,0,0,1,4.67,3.53A32.57,32.57,0,0,1,116.77,8a29.49,29.49,0,0,1,3,4.59,27.36,27.36,0,0,1,2,5v0a28.17,28.17,0,0,1,1,5.27,29.53,29.53,0,0,1,0,5.48,32.61,32.61,0,0,1-1,5.54,38.61,38.61,0,0,1-2,5.57l-.07.15a2.42,2.42,0,0,1-.49.64,2.18,2.18,0,0,1-.7.42,2.21,2.21,0,0,1-1.6,0l-.22-.1a2.16,2.16,0,0,1-.61-.47,2.25,2.25,0,0,1-.42-.7,2.17,2.17,0,0,1-.14-.85,2.11,2.11,0,0,1,.2-.84,34,34,0,0,0,1.78-4.88,28.43,28.43,0,0,0,.91-4.83,24.33,24.33,0,0,0,0-4.67,22.88,22.88,0,0,0-.84-4.48,23.72,23.72,0,0,0-1.7-4.22,25.58,25.58,0,0,0-2.56-3.92,27.84,27.84,0,0,0-3.36-3.54,32.49,32.49,0,0,0-4.11-3.1ZM93.62,13.36l-.11-.07a2.25,2.25,0,0,1-.58-.57,2.27,2.27,0,0,1-.37-1.58,2.14,2.14,0,0,1,.28-.79l.08-.13a2.1,2.1,0,0,1,.57-.58,2.24,2.24,0,0,1,.74-.33,2.24,2.24,0,0,1,1.68.27l0,0a31.3,31.3,0,0,1,3.6,2.59,23.81,23.81,0,0,1,2.92,2.94,19.37,19.37,0,0,1,2.21,3.27,17.65,17.65,0,0,1,1.43,3.53,17.92,17.92,0,0,1,.64,3.76,19.36,19.36,0,0,1-.16,3.93,22.93,22.93,0,0,1-.94,4,29.85,29.85,0,0,1-1.71,4.15l0,.07a2,2,0,0,1-.52.64,2.22,2.22,0,0,1-.72.4h0a2.13,2.13,0,0,1-.83.1,2.28,2.28,0,0,1-.83-.22l-.07,0a2.29,2.29,0,0,1-.64-.52,2.22,2.22,0,0,1-.4-.72v0a2.06,2.06,0,0,1-.1-.82,2.18,2.18,0,0,1,.22-.83,24.55,24.55,0,0,0,1.43-3.45v0a19.18,19.18,0,0,0,.78-3.28,16,16,0,0,0,.15-3.07,13.23,13.23,0,0,0-.49-2.89,12.89,12.89,0,0,0-1.11-2.71A15.64,15.64,0,0,0,99,17.88l0,0a19.35,19.35,0,0,0-2.36-2.34,26.2,26.2,0,0,0-3-2.15Zm-14,7.26a25.15,25.15,0,0,0-12-7.22A2.36,2.36,0,0,1,66,11.77a4,4,0,0,0-1.84-2.38,5.2,5.2,0,0,0-2.6-.68A5,5,0,0,0,59,9.38a4,4,0,0,0-1.8,2.36,2.35,2.35,0,0,1-1.71,1.64A25,25,0,0,0,37,33,59.78,59.78,0,0,0,36.56,44c0,1.44,0,2.85,0,3.44a29.83,29.83,0,0,1-3.07,14.15,28.69,28.69,0,0,1-9.38,10.19H98.73a29.34,29.34,0,0,1-8.64-8.86,27.08,27.08,0,0,1-3.67-12.21c-.19-2.41-.14-5-.1-7.64a54.63,54.63,0,0,0-.43-10,24.7,24.7,0,0,0-6.25-12.39Z"/>
  </g>
 </g>
</svg>
